<?xml version="1.0" encoding="UTF-8"?>
<svg id="Layer_1" xmlns="http://www.w3.org/2000/svg" version="1.1" viewBox="0 0 45 147">
  <!-- Generator: Adobe Illustrator 29.5.1, SVG Export Plug-In . SVG Version: 2.1.0 Build 141)  -->
  <defs>
    <style>
      .st0 {
        fill: #f4f5f7;
      }

      .st1 {
        fill: #888889;
      }
    </style>
  </defs>
  <rect class="st0" x="1" y="1" width="43" height="145" rx="3" ry="3"/>
  <path class="st1" d="M41,2c1.1,0,2,.9,2,2v139c0,1.1-.9,2-2,2H4c-1.1,0-2-.9-2-2V4c0-1.1.9-2,2-2h37M41,0H4C1.79,0,0,1.79,0,4v139c0,2.21,1.79,4,4,4h37c2.21,0,4-1.79,4-4V4c0-2.21-1.79-4-4-4h0Z"/>
</svg>