<?xml version="1.0" encoding="UTF-8"?><svg id="Layer_1" xmlns="http://www.w3.org/2000/svg" viewBox="0 0 106.24 60.82"><defs><style>.cls-1{fill:#fff;}.cls-2{fill:#3361b7;}</style></defs><path class="cls-1" d="M97.79,0h-38.72c-2.32,0-4.42.94-5.95,2.46-1.53-1.52-3.63-2.46-5.95-2.46H8.45C3.79,0,0,3.79,0,8.45v43.91c0,4.66,3.79,8.45,8.45,8.45h38.72c2.32,0,4.42-.94,5.95-2.46,1.53,1.52,3.63,2.46,5.95,2.46h38.72c4.66,0,8.45-3.79,8.45-8.45V8.45c0-4.66-3.79-8.45-8.45-8.45Z"/><rect class="cls-2" x="36.71" y="5" width="64.53" height="50.82" rx="4.11" ry="4.11"/><rect class="cls-2" x="5" y="5" width="45.62" height="50.82" rx="3.45" ry="3.45"/></svg>