<?xml version="1.0" encoding="UTF-8"?><svg id="Layer_1" xmlns="http://www.w3.org/2000/svg" viewBox="0 0 733.09 50.82"><defs><style>.cls-1{fill:#d1d3d4;}</style></defs><polygon class="cls-1" points="689.71 0 687.47 0 683.98 0 638.37 0 634.88 0 589.26 0 585.77 0 540.16 0 536.67 0 491.05 0 487.56 0 441.95 0 438.46 0 392.84 0 389.35 0 343.74 0 340.25 0 294.63 0 291.14 0 245.53 0 242.04 0 196.42 0 192.93 0 147.32 0 143.83 0 98.21 0 94.72 0 49.11 0 0 0 0 50.82 49.11 50.82 94.72 50.82 98.21 50.82 143.83 50.82 147.32 50.82 192.93 50.82 196.42 50.82 242.04 50.82 245.53 50.82 291.14 50.82 294.63 50.82 340.25 50.82 343.74 50.82 389.35 50.82 392.84 50.82 438.46 50.82 441.95 50.82 487.56 50.82 491.05 50.82 536.67 50.82 540.16 50.82 585.77 50.82 589.26 50.82 634.88 50.82 638.37 50.82 683.98 50.82 687.47 50.82 689.71 50.82 733.09 50.82 733.09 0 689.71 0"/></svg>
