<?xml version="1.0" encoding="UTF-8"?><svg id="Layer_1" xmlns="http://www.w3.org/2000/svg" viewBox="0 0 689.16 689.16"><defs><style>.cls-1{fill:#fff;}</style></defs><path class="cls-1" d="M344.58,681.66c-90.04,0-174.69-35.06-238.35-98.73S7.5,434.62,7.5,344.58,42.56,169.89,106.23,106.23,254.54,7.5,344.58,7.5s174.69,35.06,238.35,98.73,98.73,148.31,98.73,238.35-35.06,174.69-98.73,238.35-148.31,98.73-238.35,98.73Z"/><path d="M344.58,15c44.5,0,87.66,8.71,128.28,25.89,39.24,16.6,74.49,40.36,104.77,70.64s54.04,65.52,70.64,104.77c17.18,40.62,25.89,83.78,25.89,128.28s-8.71,87.66-25.89,128.28c-16.6,39.24-40.36,74.49-70.64,104.77s-65.52,54.04-104.77,70.64c-40.62,17.18-83.78,25.89-128.28,25.89s-87.66-8.71-128.28-25.89c-39.24-16.6-74.49-40.37-104.77-70.64-30.27-30.27-54.04-65.52-70.64-104.77-17.18-40.62-25.89-83.78-25.89-128.28s8.71-87.66,25.89-128.28c16.6-39.24,40.36-74.49,70.64-104.77,30.27-30.27,65.52-54.04,104.77-70.64,40.62-17.18,83.78-25.89,128.28-25.89M344.58,0C154.27,0,0,154.27,0,344.58s154.27,344.58,344.58,344.58,344.58-154.27,344.58-344.58S534.89,0,344.58,0h0Z"/></svg>