<?xml version="1.0" encoding="UTF-8"?>
<svg id="Layer_1" xmlns="http://www.w3.org/2000/svg" version="1.1" viewBox="0 0 689.16 689.16">
  <!-- Generator: Adobe Illustrator 29.5.1, SVG Export Plug-In . SVG Version: 2.1.0 Build 141)  -->
  <defs>
    <style>
      .st0 {
        fill: #fff;
      }
    </style>
  </defs>
  <path class="st0" d="M344.58,679.16c-89.37,0-173.39-34.8-236.58-98-63.19-63.19-98-147.21-98-236.58S44.8,171.19,108,108C171.19,44.8,255.21,10,344.58,10s173.39,34.8,236.58,98c63.19,63.19,98,147.21,98,236.58s-34.8,173.39-98,236.58-147.21,98-236.58,98Z"/>
  <path d="M344.58,20c43.83,0,86.33,8.58,126.34,25.5,38.65,16.35,73.36,39.75,103.18,69.57s53.22,64.53,69.57,103.18c16.92,40,25.5,82.51,25.5,126.34s-8.58,86.33-25.5,126.34c-16.35,38.65-39.75,73.36-69.57,103.18s-64.53,53.22-103.18,69.57c-40,16.92-82.51,25.5-126.34,25.5s-86.33-8.58-126.34-25.5c-38.65-16.35-73.36-39.75-103.18-69.57-29.82-29.82-53.22-64.53-69.57-103.18-16.92-40-25.5-82.51-25.5-126.34s8.58-86.33,25.5-126.34c16.35-38.65,39.75-73.36,69.57-103.18,29.82-29.82,64.53-53.22,103.18-69.57,40-16.92,82.51-25.5,126.34-25.5M344.58,0C154.27,0,0,154.27,0,344.58s154.27,344.58,344.58,344.58,344.58-154.27,344.58-344.58S534.89,0,344.58,0h0Z"/>
</svg>