<?xml version="1.0" encoding="UTF-8"?><svg id="Layer_1" xmlns="http://www.w3.org/2000/svg" viewBox="0 0 2155.508 2155.508"><defs><style>.cls-1{fill:#fff;}</style></defs><path class="cls-1" d="M1077.754,2105.508c-138.768,0-273.358-27.166-400.032-80.745-122.379-51.762-232.296-125.874-326.699-220.277s-168.515-204.321-220.277-326.699c-53.579-126.675-80.746-261.265-80.746-400.033s27.167-273.358,80.746-400.032c51.762-122.379,125.874-232.296,220.277-326.699s204.32-168.515,326.699-220.277c126.674-53.579,261.265-80.746,400.032-80.746s273.358,27.167,400.033,80.746c122.378,51.762,232.296,125.874,326.698,220.277,94.403,94.403,168.516,204.32,220.277,326.699,53.578,126.674,80.745,261.265,80.745,400.032s-27.167,273.358-80.745,400.033c-51.762,122.378-125.874,232.296-220.277,326.699-94.402,94.403-204.32,168.516-326.698,220.277-126.675,53.579-261.265,80.745-400.033,80.745Z"/><path d="M1077.754,100c66.405,0,132.738,6.684,197.157,19.866,62.731,12.837,124.435,31.99,183.398,56.93,57.914,24.496,113.781,54.82,166.046,90.13,51.795,34.992,100.505,75.182,144.775,119.452s84.46,92.979,119.452,144.775c35.31,52.266,65.634,108.132,90.13,166.047,24.939,58.963,44.093,120.666,56.93,183.398,13.182,64.419,19.866,130.753,19.866,197.157s-6.684,132.738-19.866,197.157c-12.837,62.731-31.991,124.435-56.93,183.398-24.496,57.914-54.82,113.781-90.13,166.046-34.992,51.795-75.182,100.505-119.452,144.775-44.27,44.271-92.979,84.46-144.775,119.452-52.266,35.31-108.132,65.634-166.046,90.13-58.963,24.939-120.667,44.093-183.398,56.93-64.419,13.182-130.753,19.866-197.157,19.866s-132.738-6.684-197.157-19.866c-62.732-12.837-124.435-31.991-183.398-56.93-57.915-24.496-113.781-54.82-166.047-90.13-51.795-34.992-100.504-75.182-144.775-119.452s-84.459-92.979-119.452-144.775c-35.31-52.266-65.634-108.132-90.13-166.046-24.939-58.963-44.093-120.667-56.93-183.398-13.182-64.419-19.866-130.753-19.866-197.157s6.684-132.738,19.866-197.157c12.837-62.732,31.991-124.435,56.93-183.398,24.496-57.915,54.82-113.781,90.13-166.047,34.992-51.795,75.182-100.504,119.452-144.775,44.271-44.27,92.979-84.459,144.775-119.452,52.266-35.31,108.132-65.634,166.047-90.13,58.963-24.94,120.666-44.093,183.398-56.93,64.419-13.182,130.753-19.866,197.157-19.866M1077.754,0C482.527,0,0,482.527,0,1077.754s482.527,1077.754,1077.754,1077.754,1077.754-482.527,1077.754-1077.754S1672.981,0,1077.754,0h0Z"/></svg>